<mxfile host="app.diagrams.net" agent="Mozilla/5.0 (Windows NT 10.0; Win64; x64) AppleWebKit/537.36 (KHTML, like Gecko) Chrome/128.0.0.0 Safari/537.36 Edg/128.0.0.0" version="24.7.13">
  <diagram name="Page-1" id="a7TRmGBLqM3tCm9n5iNg">
    <mxGraphModel dx="1652" dy="510" grid="1" gridSize="10" guides="1" tooltips="1" connect="1" arrows="1" fold="1" page="1" pageScale="1" pageWidth="850" pageHeight="1100" math="0" shadow="0">
      <root>
        <mxCell id="0" />
        <mxCell id="1" parent="0" />
        <mxCell id="uxuZnD_PII7LTGGJK3_H-21" style="edgeStyle=orthogonalEdgeStyle;rounded=0;orthogonalLoop=1;jettySize=auto;html=1;exitX=1;exitY=0.5;exitDx=0;exitDy=0;" edge="1" parent="1" source="uxuZnD_PII7LTGGJK3_H-1" target="uxuZnD_PII7LTGGJK3_H-3">
          <mxGeometry relative="1" as="geometry" />
        </mxCell>
        <mxCell id="uxuZnD_PII7LTGGJK3_H-1" value="&lt;div&gt;Game&lt;/div&gt;" style="swimlane;whiteSpace=wrap;html=1;startSize=20;" vertex="1" parent="1">
          <mxGeometry x="-110" y="190" width="200" height="180" as="geometry" />
        </mxCell>
        <mxCell id="uxuZnD_PII7LTGGJK3_H-7" value="-levels:Level*[10]&lt;div&gt;-currentLevel : Level* = null&lt;/div&gt;&lt;div&gt;-lives : int&lt;/div&gt;&lt;div&gt;-score : int&lt;/div&gt;&lt;div&gt;-time : float&lt;/div&gt;" style="rounded=0;whiteSpace=wrap;html=1;align=left;" vertex="1" parent="uxuZnD_PII7LTGGJK3_H-1">
          <mxGeometry y="20" width="200" height="80" as="geometry" />
        </mxCell>
        <mxCell id="uxuZnD_PII7LTGGJK3_H-8" value="&lt;div&gt;+update (delta : float)&lt;/div&gt;+getLives() : int&lt;div&gt;+setLives()&lt;/div&gt;&lt;div&gt;+restartCurrentLevel()&lt;/div&gt;&lt;div&gt;+gameOver()&lt;/div&gt;" style="rounded=0;whiteSpace=wrap;html=1;align=left;" vertex="1" parent="uxuZnD_PII7LTGGJK3_H-1">
          <mxGeometry y="100" width="200" height="80" as="geometry" />
        </mxCell>
        <mxCell id="uxuZnD_PII7LTGGJK3_H-20" style="edgeStyle=orthogonalEdgeStyle;rounded=0;orthogonalLoop=1;jettySize=auto;html=1;exitX=0.5;exitY=0;exitDx=0;exitDy=0;" edge="1" parent="1" source="uxuZnD_PII7LTGGJK3_H-2" target="uxuZnD_PII7LTGGJK3_H-8">
          <mxGeometry relative="1" as="geometry" />
        </mxCell>
        <mxCell id="uxuZnD_PII7LTGGJK3_H-2" value="HeadsUpDisplay" style="swimlane;whiteSpace=wrap;html=1;startSize=30;" vertex="1" parent="1">
          <mxGeometry x="-110" y="420" width="150" height="150" as="geometry" />
        </mxCell>
        <mxCell id="uxuZnD_PII7LTGGJK3_H-18" value="-currentScore : int&lt;div&gt;-hiScore : int&lt;/div&gt;" style="rounded=0;whiteSpace=wrap;html=1;align=left;" vertex="1" parent="uxuZnD_PII7LTGGJK3_H-2">
          <mxGeometry y="30" width="150" height="60" as="geometry" />
        </mxCell>
        <mxCell id="uxuZnD_PII7LTGGJK3_H-19" value="+updateScore(score : int)" style="rounded=0;whiteSpace=wrap;html=1;align=left;" vertex="1" parent="uxuZnD_PII7LTGGJK3_H-2">
          <mxGeometry y="90" width="150" height="60" as="geometry" />
        </mxCell>
        <mxCell id="uxuZnD_PII7LTGGJK3_H-3" value="Level" style="swimlane;whiteSpace=wrap;html=1;startSize=20;" vertex="1" parent="1">
          <mxGeometry x="250" y="205" width="120" height="150" as="geometry" />
        </mxCell>
        <mxCell id="uxuZnD_PII7LTGGJK3_H-9" value="-terrain : terrainType&lt;div&gt;-trafficSpeed : float&lt;/div&gt;&lt;div&gt;-riverSpeed : float&lt;/div&gt;" style="rounded=0;whiteSpace=wrap;html=1;align=left;" vertex="1" parent="uxuZnD_PII7LTGGJK3_H-3">
          <mxGeometry y="20" width="120" height="60" as="geometry" />
        </mxCell>
        <mxCell id="uxuZnD_PII7LTGGJK3_H-13" value="+spawnCar()&lt;div&gt;+spawnTruck()&lt;/div&gt;&lt;div&gt;+spawnLog()&lt;/div&gt;&lt;div&gt;+spawnTurtle&lt;/div&gt;" style="rounded=0;whiteSpace=wrap;html=1;align=left;" vertex="1" parent="uxuZnD_PII7LTGGJK3_H-3">
          <mxGeometry y="80" width="120" height="70" as="geometry" />
        </mxCell>
        <mxCell id="uxuZnD_PII7LTGGJK3_H-22" style="edgeStyle=orthogonalEdgeStyle;rounded=0;orthogonalLoop=1;jettySize=auto;html=1;exitX=0.5;exitY=0;exitDx=0;exitDy=0;entryX=0.5;entryY=1;entryDx=0;entryDy=0;" edge="1" parent="1" source="uxuZnD_PII7LTGGJK3_H-4" target="uxuZnD_PII7LTGGJK3_H-3">
          <mxGeometry relative="1" as="geometry" />
        </mxCell>
        <mxCell id="uxuZnD_PII7LTGGJK3_H-4" value="Frog" style="swimlane;whiteSpace=wrap;html=1;startSize=20;" vertex="1" parent="1">
          <mxGeometry x="210" y="440" width="200" height="120" as="geometry" />
        </mxCell>
        <mxCell id="uxuZnD_PII7LTGGJK3_H-14" value="-x : float&lt;div&gt;-y : float&lt;/div&gt;&lt;div&gt;-direction : FrogDirection&lt;/div&gt;" style="rounded=0;whiteSpace=wrap;html=1;align=left;" vertex="1" parent="uxuZnD_PII7LTGGJK3_H-4">
          <mxGeometry y="20" width="200" height="60" as="geometry" />
        </mxCell>
        <mxCell id="uxuZnD_PII7LTGGJK3_H-17" value="+move(dir:FrogDirection)" style="rounded=0;whiteSpace=wrap;html=1;align=left;" vertex="1" parent="uxuZnD_PII7LTGGJK3_H-4">
          <mxGeometry y="80" width="200" height="40" as="geometry" />
        </mxCell>
        <mxCell id="uxuZnD_PII7LTGGJK3_H-10" value="&amp;lt;&amp;lt;Enumerator&lt;span style=&quot;background-color: initial;&quot;&gt;&amp;gt;&amp;gt;&lt;/span&gt;&lt;div&gt;TerrainType&lt;/div&gt;" style="swimlane;whiteSpace=wrap;html=1;startSize=40;" vertex="1" parent="1">
          <mxGeometry x="500" y="340" width="130" height="80" as="geometry" />
        </mxCell>
        <mxCell id="uxuZnD_PII7LTGGJK3_H-11" value="Concrete&lt;div&gt;Water&lt;/div&gt;" style="rounded=0;whiteSpace=wrap;html=1;align=left;" vertex="1" parent="uxuZnD_PII7LTGGJK3_H-10">
          <mxGeometry y="40" width="130" height="40" as="geometry" />
        </mxCell>
        <mxCell id="uxuZnD_PII7LTGGJK3_H-15" value="&amp;lt;&amp;lt;Enumerator&amp;gt;&amp;gt;&lt;div&gt;FrogDirection&lt;/div&gt;" style="swimlane;whiteSpace=wrap;html=1;startSize=40;" vertex="1" parent="1">
          <mxGeometry x="510" y="460" width="120" height="110" as="geometry" />
        </mxCell>
        <mxCell id="uxuZnD_PII7LTGGJK3_H-16" value="Up&lt;div&gt;Down&lt;/div&gt;&lt;div&gt;Left&lt;/div&gt;&lt;div&gt;Right&lt;/div&gt;" style="rounded=0;whiteSpace=wrap;html=1;align=left;" vertex="1" parent="uxuZnD_PII7LTGGJK3_H-15">
          <mxGeometry y="40" width="120" height="70" as="geometry" />
        </mxCell>
      </root>
    </mxGraphModel>
  </diagram>
</mxfile>
